<?xml version="1.0" standalone="no"?><!DOCTYPE svg PUBLIC "-//W3C//DTD SVG 1.1//EN" "http://www.w3.org/Graphics/SVG/1.1/DTD/svg11.dtd"><svg t="1662516112207" class="icon" viewBox="0 0 1024 1024" version="1.1" xmlns="http://www.w3.org/2000/svg" p-id="5877" width="64" height="64" xmlns:xlink="http://www.w3.org/1999/xlink"><path d="M884.769 798.898l-38.45-366.35c-6.725-63.56-66.926-113.362-137.21-113.362H678.01V245.75c0-91.093-74.07-165.159-165.051-165.159-91.093 0-165.056 74.066-165.056 165.052v73.44h-31.098c-70.285 0-130.485 49.797-137.21 113.464l-38.45 366.243c-4.202 40.24 8.3 79.956 34.356 108.95 26.054 28.893 62.405 44.862 102.537 44.862h469.73c40.137 0 76.488-15.97 102.542-44.861 26.158-28.995 38.768-68.603 34.459-108.843zM391.928 245.643c0-66.818 54.317-121.135 121.134-121.135 66.715 0 121.031 54.317 121.031 121.135v73.44H391.928v-73.44zM817.74 878.325c-17.545 19.54-42.339 30.256-69.866 30.256H278.038c-27.527 0-52.32-10.716-69.866-30.256-18.071-19.966-26.367-46.544-23.325-74.913l38.454-366.346c4.31-40.87 46.226-74.07 93.401-74.07H709.11c47.277 0 89.194 33.2 93.503 74.07l38.454 366.346c2.94 28.37-5.36 54.947-23.325 74.913zM622.433 711.273c-76.91 51.798-142.361 61.252-179.657 25.85a91.582 91.582 0 0 1-10.926-12.82c59.256-13.655 222.101-60.933 213.272-166.524-3.78-44.65-34.457-80.058-78.374-90.245-48.222-11.558-118.616 7.982-171.25 95.606-40.66 67.762-33.2 158.116 17.022 205.917 13.867 13.24 42.445 33.202 87.932 33.202 37.192 0 85.63-13.237 146.564-54.317 10.085-6.828 12.711-20.488 5.986-30.574-6.828-10.189-20.483-12.815-30.57-6.095zM433.112 585.83c34.457-57.256 75.538-77.324 107.478-77.324 5.673 0 11.029 0.63 16.072 1.784 25.32 5.885 42.342 25.533 44.548 51.059 5.464 65.561-126.391 108.428-185.961 121.453-5.674-31.309 0-67.342 17.863-96.972z m0 0" p-id="5878"></path></svg>